<svg width="40" height="40" viewBox="0 0 40 40" fill="none" xmlns="http://www.w3.org/2000/svg">
<path fill-rule="evenodd" clip-rule="evenodd" d="M0.000976562 20C0.000976562 31.0457 8.95528 40 20.001 40C31.0467 40 40.001 31.0457 40.001 20C40.001 8.9543 31.0467 0 20.001 0C8.95528 0 0.000976562 8.9543 0.000976562 20ZM16.3345 29.1667L16.6748 24.0686L16.6745 24.0684L25.9486 15.6992C26.3556 15.338 25.8597 15.1618 25.3194 15.4895L13.8739 22.7103L8.93007 21.1672C7.86242 20.8403 7.85475 20.1067 9.16977 19.5792L28.4348 12.1507C29.3147 11.7513 30.1639 12.3621 29.828 13.7088L26.5472 29.1693C26.3181 30.2679 25.6543 30.5307 24.7345 30.0232L19.7368 26.3308L17.3345 28.6667C17.3269 28.6741 17.3194 28.6814 17.3119 28.6887C17.0432 28.9503 16.8209 29.1667 16.3345 29.1667Z" fill="#82B5D1"/>
</svg>
