<svg width="42" height="42" viewBox="0 0 42 42" fill="none" xmlns="http://www.w3.org/2000/svg">
<path d="M17.6748 25.0686L18.1737 25.1019L18.1919 24.8288L17.9718 24.6663L17.6748 25.0686ZM17.3345 30.1667L16.8356 30.1334L16.8 30.6667H17.3345V30.1667ZM17.6745 25.0684L17.3395 24.6972L16.8852 25.1071L17.3775 25.4706L17.6745 25.0684ZM26.9486 16.6992L26.6167 16.3252L26.6136 16.328L26.9486 16.6992ZM26.3194 16.4895L26.0601 16.0619L26.0526 16.0666L26.3194 16.4895ZM14.8739 23.7103L14.7249 24.1876L14.9454 24.2564L15.1407 24.1332L14.8739 23.7103ZM9.93007 22.1672L10.079 21.6899L10.0765 21.6891L9.93007 22.1672ZM10.1698 20.5792L9.98987 20.1127L9.98363 20.1152L10.1698 20.5792ZM29.4348 13.1507L29.6147 13.6173L29.6282 13.612L29.6415 13.606L29.4348 13.1507ZM30.828 14.7088L30.3429 14.5878L30.3407 14.5963L30.3389 14.605L30.828 14.7088ZM27.5472 30.1693L27.0581 30.0655L27.0577 30.0672L27.5472 30.1693ZM25.7345 31.0232L25.4374 31.4253L25.464 31.445L25.493 31.461L25.7345 31.0232ZM20.7368 27.3308L21.0339 26.9286L20.6925 26.6764L20.3882 26.9723L20.7368 27.3308ZM18.3345 29.6667L18.6831 30.0252L18.6831 30.0252L18.3345 29.6667ZM18.3119 29.6887L17.9631 29.3304L17.9631 29.3304L18.3119 29.6887ZM21.001 40.5C10.2314 40.5 1.50098 31.7696 1.50098 21H0.500977C0.500977 32.3218 9.67914 41.5 21.001 41.5V40.5ZM40.501 21C40.501 31.7696 31.7705 40.5 21.001 40.5V41.5C32.3228 41.5 41.501 32.3218 41.501 21H40.501ZM21.001 1.5C31.7705 1.5 40.501 10.2304 40.501 21H41.501C41.501 9.67816 32.3228 0.5 21.001 0.5V1.5ZM1.50098 21C1.50098 10.2304 10.2314 1.5 21.001 1.5V0.5C9.67914 0.5 0.500977 9.67816 0.500977 21H1.50098ZM17.1759 25.0353L16.8356 30.1334L17.8334 30.2L18.1737 25.1019L17.1759 25.0353ZM17.3775 25.4706L17.3778 25.4708L17.9718 24.6663L17.9715 24.6661L17.3775 25.4706ZM26.6136 16.328L17.3395 24.6972L18.0095 25.4396L27.2836 17.0704L26.6136 16.328ZM26.5787 16.917C26.669 16.8622 26.7482 16.8344 26.8038 16.8229C26.869 16.8095 26.8709 16.824 26.827 16.8089C26.8023 16.8004 26.7434 16.7751 26.6883 16.7096C26.6265 16.6362 26.5949 16.5416 26.5983 16.4494C26.6013 16.3679 26.6302 16.3183 26.6372 16.3071C26.6449 16.2948 26.6432 16.3017 26.6167 16.3252L27.2805 17.0731C27.4104 16.9578 27.5875 16.7595 27.5976 16.4865C27.6034 16.3321 27.5526 16.1836 27.4534 16.0658C27.361 15.9559 27.2466 15.8956 27.1515 15.863C26.967 15.7998 26.7691 15.8091 26.602 15.8435C26.4254 15.8799 26.24 15.9529 26.0601 16.0619L26.5787 16.917ZM15.1407 24.1332L26.5862 16.9123L26.0526 16.0666L14.6071 23.2874L15.1407 24.1332ZM9.7811 22.6445L14.7249 24.1876L15.0229 23.233L10.079 21.6899L9.7811 22.6445ZM9.98363 20.1152C9.62225 20.2601 9.32055 20.4311 9.09629 20.6293C8.87525 20.8246 8.69047 21.0828 8.6589 21.3987C8.62545 21.7334 8.77454 22.0166 8.98899 22.219C9.1949 22.4133 9.47443 22.5506 9.78368 22.6453L10.0765 21.6891C9.85188 21.6204 9.73008 21.5434 9.67538 21.4918C9.62921 21.4482 9.65838 21.4537 9.65394 21.4982C9.65137 21.5239 9.64451 21.4793 9.75852 21.3786C9.86931 21.2806 10.0598 21.1621 10.3559 21.0433L9.98363 20.1152ZM29.2549 12.6842L9.98988 20.1127L10.3497 21.0458L29.6147 13.6173L29.2549 12.6842ZM31.3131 14.8298C31.5064 14.0549 31.389 13.3547 30.9349 12.9155C30.4738 12.4696 29.809 12.4317 29.2281 12.6955L29.6415 13.606C29.9405 13.4703 30.1402 13.5381 30.2397 13.6343C30.3462 13.7373 30.4855 14.0159 30.3429 14.5878L31.3131 14.8298ZM28.0363 30.2731L31.3171 14.8126L30.3389 14.605L27.0581 30.0655L28.0363 30.2731ZM25.493 31.461C26.0111 31.7469 26.5858 31.8886 27.1054 31.6543C27.6275 31.4189 27.9081 30.888 28.0366 30.2713L27.0577 30.0672C26.9572 30.5492 26.7912 30.699 26.6943 30.7427C26.5947 30.7876 26.3776 30.807 25.9761 30.5854L25.493 31.461ZM20.4396 27.7329L25.4374 31.4253L26.0316 30.621L21.0339 26.9286L20.4396 27.7329ZM18.6831 30.0252L21.0853 27.6893L20.3882 26.9723L17.9859 29.3082L18.6831 30.0252ZM18.6607 30.0469C18.6682 30.0396 18.6756 30.0324 18.6831 30.0252L17.9859 29.3082C17.9782 29.3157 17.9706 29.3232 17.9631 29.3304L18.6607 30.0469ZM17.3345 30.6667C17.6607 30.6667 17.925 30.5918 18.1553 30.4585C18.3683 30.3352 18.5347 30.1696 18.6607 30.0469L17.9631 29.3304C17.8204 29.4694 17.7413 29.5427 17.6544 29.593C17.5848 29.6333 17.4948 29.6667 17.3345 29.6667V30.6667Z" fill="#82B5D1"/>
</svg>
