<svg width="40" height="41" viewBox="0 0 40 41" fill="none" xmlns="http://www.w3.org/2000/svg">
<path fill-rule="evenodd" clip-rule="evenodd" d="M20 0.833496C8.9543 0.833496 0 9.7878 0 20.8335C0 31.8792 8.9543 40.8335 20 40.8335C31.0457 40.8335 40 31.8792 40 20.8335C40 9.7878 31.0457 0.833496 20 0.833496ZM19.443 17.7818L19.401 17.0897C19.2751 15.2961 20.3803 13.6578 22.129 13.0222C22.7725 12.7962 23.8637 12.768 24.5771 12.9657C24.8569 13.0505 25.3885 13.3329 25.7663 13.5872L26.4518 14.0532L27.2072 13.8131C27.6269 13.686 28.1865 13.4742 28.4383 13.3329C28.6761 13.2058 28.8859 13.1352 28.8859 13.1776C28.8859 13.4177 28.3683 14.2368 27.9346 14.6888C27.3471 15.3243 27.515 15.3808 28.7041 14.9571C29.4175 14.717 29.4315 14.717 29.2916 14.9854C29.2077 15.1266 28.774 15.6209 28.3124 16.0729C27.529 16.8496 27.487 16.9344 27.487 17.5841C27.487 18.5868 27.0113 20.6771 26.5357 21.8211C25.6543 23.9678 23.7658 26.1852 21.8772 27.3009C19.2191 28.8686 15.6798 29.2641 12.7 28.3461C11.7067 28.0354 10 27.2444 10 27.1032C10 27.0608 10.5176 27.0044 11.1471 26.9902C12.4622 26.962 13.7772 26.5948 14.8964 25.9451L15.6518 25.4932L14.7844 25.1966C13.5534 24.7729 12.4482 23.7983 12.1684 22.8803C12.0844 22.5837 12.1124 22.5696 12.8958 22.5696L13.7072 22.5555L13.0218 22.2307C12.2104 21.8211 11.4689 21.129 11.1052 20.4229C10.8394 19.9144 10.5036 18.6292 10.6016 18.5303C10.6295 18.488 10.9233 18.5727 11.2591 18.6857C12.2243 19.0388 12.3503 18.954 11.7907 18.3608C10.7414 17.2875 10.4197 15.6915 10.9233 14.1803L11.1611 13.5024L12.0844 14.4204C13.973 16.2706 16.1974 17.3722 18.7435 17.6971L19.443 17.7818Z" fill="#82B5D1"/>
</svg>
