<svg width="42" height="42" viewBox="0 0 42 42" fill="none" xmlns="http://www.w3.org/2000/svg">
<path d="M20.401 17.0897L20.9001 17.0595L20.8998 17.0547L20.401 17.0897ZM20.443 17.7818L20.3828 18.2782L20.9784 18.3503L20.9421 17.7515L20.443 17.7818ZM23.129 13.0222L22.9633 12.5504L22.9582 12.5523L23.129 13.0222ZM25.5771 12.9657L25.7221 12.4871L25.7107 12.4839L25.5771 12.9657ZM26.7663 13.5872L27.0474 13.1737L27.0454 13.1723L26.7663 13.5872ZM27.4518 14.0532L27.1706 14.4667L27.3716 14.6033L27.6032 14.5297L27.4518 14.0532ZM28.2072 13.8131L28.0622 13.3345L28.0557 13.3366L28.2072 13.8131ZM29.4383 13.3329L29.2025 12.8919L29.1937 12.8968L29.4383 13.3329ZM28.9346 14.6888L28.5738 14.3425L28.5675 14.3494L28.9346 14.6888ZM29.7041 14.9571L29.5446 14.4832L29.5363 14.4861L29.7041 14.9571ZM30.2916 14.9854L30.7215 15.2408L30.7286 15.2288L30.735 15.2165L30.2916 14.9854ZM29.3124 16.0729L28.9626 15.7156L28.9603 15.7178L29.3124 16.0729ZM27.5357 21.8211L27.074 21.6291L27.0732 21.6312L27.5357 21.8211ZM22.8772 27.3009L23.1312 27.7316L23.1315 27.7314L22.8772 27.3009ZM13.7 28.3461L13.5507 28.8233L13.5528 28.8239L13.7 28.3461ZM12.1471 26.9902L12.1364 26.4903L12.1359 26.4904L12.1471 26.9902ZM15.8964 25.9451L16.1474 26.3776L16.1531 26.3742L15.8964 25.9451ZM16.6518 25.4932L16.9085 25.9222L17.8335 25.3688L16.8136 25.02L16.6518 25.4932ZM15.7844 25.1966L15.6217 25.6693L15.6227 25.6697L15.7844 25.1966ZM13.1684 22.8803L12.6872 23.0165L12.6901 23.0261L13.1684 22.8803ZM13.8958 22.5696L13.8958 23.0697L13.9045 23.0695L13.8958 22.5696ZM14.7072 22.5555L14.7159 23.0554L14.9214 22.1037L14.7072 22.5555ZM14.0218 22.2307L13.7964 22.6771L13.8076 22.6825L14.0218 22.2307ZM12.1052 20.4229L12.5497 20.1939L12.5483 20.1912L12.1052 20.4229ZM11.6016 18.5303L11.9568 18.8822L11.9916 18.8471L12.0188 18.8059L11.6016 18.5303ZM12.2591 18.6857L12.4309 18.216L12.4185 18.2118L12.2591 18.6857ZM12.7907 18.3608L13.1544 18.0177L13.1482 18.0113L12.7907 18.3608ZM11.9233 14.1803L11.4514 14.0148L11.449 14.0222L11.9233 14.1803ZM12.1611 13.5024L12.5137 13.1478L11.9517 12.5891L11.6893 13.3369L12.1611 13.5024ZM13.0844 14.4204L12.7319 14.775L12.7345 14.7776L13.0844 14.4204ZM19.7435 17.6971L19.6802 18.193L19.6834 18.1934L19.7435 17.6971ZM1.5 20.8335C1.5 10.0639 10.2304 1.3335 21 1.3335V0.333496C9.67816 0.333496 0.5 9.51166 0.5 20.8335H1.5ZM21 40.3335C10.2304 40.3335 1.5 31.603 1.5 20.8335H0.5C0.5 32.1553 9.67816 41.3335 21 41.3335V40.3335ZM40.5 20.8335C40.5 31.603 31.7696 40.3335 21 40.3335V41.3335C32.3218 41.3335 41.5 32.1553 41.5 20.8335H40.5ZM21 1.3335C31.7696 1.3335 40.5 10.0639 40.5 20.8335H41.5C41.5 9.51166 32.3218 0.333496 21 0.333496V1.3335ZM19.9019 17.12L19.9439 17.8121L20.9421 17.7515L20.9001 17.0595L19.9019 17.12ZM22.9582 12.5523C21.012 13.2596 19.7598 15.0957 19.9022 17.1248L20.8998 17.0547C20.7904 15.4965 21.7486 14.0559 23.2998 13.4921L22.9582 12.5523ZM25.7107 12.4839C25.2934 12.3683 24.7906 12.3238 24.3149 12.3352C23.8409 12.3466 23.351 12.4143 22.9633 12.5505L23.2946 13.494C23.5505 13.4041 23.9279 13.3448 24.3388 13.3349C24.7479 13.3251 25.1474 13.3655 25.4436 13.4476L25.7107 12.4839ZM27.0454 13.1723C26.6521 12.9076 26.0721 12.5932 25.7221 12.4872L25.4322 13.4443C25.6418 13.5077 26.125 13.7583 26.4871 14.002L27.0454 13.1723ZM27.7329 13.6397L27.0474 13.1737L26.4851 14.0006L27.1706 14.4667L27.7329 13.6397ZM28.0557 13.3366L27.3003 13.5767L27.6032 14.5297L28.3586 14.2896L28.0557 13.3366ZM29.1937 12.8968C28.9902 13.011 28.4724 13.2104 28.0623 13.3346L28.3521 14.2917C28.7814 14.1616 29.3828 13.9373 29.6829 13.769L29.1937 12.8968ZM30.3859 13.1776C30.3859 13.0624 30.3465 12.9384 30.2558 12.8372C30.1738 12.7457 30.0794 12.7059 30.0212 12.6883C29.9152 12.6562 29.8233 12.6659 29.7932 12.6693C29.7147 12.6782 29.6398 12.7013 29.5888 12.7188C29.475 12.7579 29.3382 12.8195 29.2026 12.892L29.674 13.7739C29.7762 13.7193 29.8632 13.6819 29.9138 13.6645C29.945 13.6538 29.9374 13.6593 29.9057 13.6629C29.8989 13.6637 29.8253 13.6738 29.7317 13.6455C29.6797 13.6297 29.5901 13.5926 29.5112 13.5047C29.4237 13.4071 29.3859 13.2874 29.3859 13.1776H30.3859ZM29.2954 15.035C29.5416 14.7784 29.7995 14.4319 29.9959 14.1203C30.0947 13.9636 30.1841 13.806 30.2508 13.6642C30.284 13.5935 30.315 13.5196 30.3385 13.4471C30.3596 13.382 30.3859 13.2848 30.3859 13.1776H29.3859C29.3859 13.1304 29.3961 13.1113 29.3872 13.1387C29.3807 13.1587 29.3679 13.1918 29.3458 13.2387C29.3019 13.3321 29.2348 13.4526 29.1499 13.5871C28.9791 13.8582 28.7614 14.1472 28.5739 14.3426L29.2954 15.035ZM29.5363 14.4861C29.2421 14.5909 29.0264 14.6604 28.8759 14.6988C28.8002 14.7182 28.7539 14.7262 28.7295 14.7289C28.6916 14.733 28.7389 14.7207 28.8168 14.7477C28.8638 14.764 28.9377 14.8002 29.0022 14.8769C29.0701 14.9576 29.099 15.0493 29.1049 15.1267C29.1102 15.1966 29.0967 15.2476 29.09 15.2685C29.0829 15.2911 29.0764 15.3021 29.0781 15.2989C29.0937 15.2706 29.1541 15.1879 29.3018 15.0282L28.5675 14.3494C28.4214 14.5074 28.2825 14.6701 28.2014 14.8179C28.1665 14.8815 28.0942 15.0248 28.1078 15.2027C28.1157 15.307 28.1534 15.4213 28.2369 15.5206C28.3169 15.6157 28.4131 15.6662 28.4894 15.6926C28.6259 15.7399 28.7596 15.7314 28.8367 15.7231C28.9276 15.7133 29.0251 15.6928 29.1232 15.6678C29.3203 15.6175 29.5715 15.5352 29.8719 15.4281L29.5363 14.4861ZM30.735 15.2165C30.752 15.1839 30.7725 15.1443 30.79 15.1064C30.805 15.0738 30.8327 15.0114 30.8483 14.9378C30.8609 14.8784 30.8941 14.6839 30.7582 14.499C30.6173 14.3074 30.4134 14.2845 30.3413 14.2811C30.2581 14.2772 30.1829 14.2909 30.1372 14.3006C30.0848 14.3116 30.0292 14.3268 29.9741 14.3432C29.8642 14.3759 29.7201 14.4242 29.5446 14.4832L29.8636 15.431C30.0448 15.37 30.17 15.3282 30.259 15.3018C30.3033 15.2886 30.3296 15.282 30.3437 15.279C30.3643 15.2747 30.34 15.2822 30.2944 15.28C30.2599 15.2784 30.0803 15.2652 29.9525 15.0914C29.8296 14.9242 29.8647 14.7555 29.8701 14.7302C29.8785 14.6906 29.8899 14.6703 29.8817 14.6881C29.8759 14.7007 29.8662 14.7198 29.8483 14.7542L30.735 15.2165ZM29.6621 16.4302C29.9014 16.1959 30.1329 15.9513 30.3165 15.7457C30.4859 15.556 30.6502 15.3607 30.7215 15.2408L29.8618 14.7299C29.8644 14.7257 29.8603 14.7328 29.8434 14.7554C29.8282 14.7759 29.8073 14.8026 29.7805 14.8356C29.7269 14.9013 29.6556 14.9845 29.5708 15.0795C29.4011 15.2694 29.185 15.4978 28.9626 15.7156L29.6621 16.4302ZM28.987 17.5841C28.987 17.2559 29.0039 17.1909 29.0452 17.1149C29.1107 16.9944 29.2535 16.8354 29.6644 16.4279L28.9603 15.7178C28.5878 16.0871 28.3179 16.3589 28.1666 16.6374C27.9911 16.9603 27.987 17.2626 27.987 17.5841H28.987ZM27.9974 22.013C28.2502 21.405 28.4955 20.5662 28.6775 19.7596C28.8581 18.9588 28.987 18.1421 28.987 17.5841H27.987C27.987 18.0288 27.8781 18.7586 27.702 19.5396C27.5271 20.3148 27.2968 21.0932 27.074 21.6291L27.9974 22.013ZM23.1315 27.7314C25.1189 26.5573 27.0778 24.2528 27.9982 22.011L27.0732 21.6312C26.2309 23.6828 24.4126 25.8131 22.6228 26.8705L23.1315 27.7314ZM13.5528 28.8239C16.664 29.7824 20.3494 29.3723 23.1312 27.7316L22.6231 26.8703C20.0889 28.365 16.6955 28.7457 13.8472 27.8682L13.5528 28.8239ZM10.5 27.1032C10.5 27.2291 10.5454 27.3224 10.5719 27.3682C10.6007 27.4182 10.6326 27.4554 10.6542 27.4785C10.6974 27.5248 10.7443 27.5616 10.779 27.5872C10.8518 27.6408 10.9428 27.696 11.0368 27.7489C11.2288 27.8571 11.4866 27.9852 11.768 28.1151C12.3296 28.3742 13.026 28.6591 13.5507 28.8233L13.8493 27.8689C13.3808 27.7223 12.7272 27.4564 12.187 27.2071C11.9176 27.0827 11.6866 26.9672 11.5276 26.8777C11.446 26.8317 11.3959 26.7996 11.3715 26.7816C11.3577 26.7715 11.3669 26.7766 11.3846 26.7955C11.3935 26.805 11.4157 26.8297 11.438 26.8684C11.4579 26.9029 11.5 26.9862 11.5 27.1032H10.5ZM12.1359 26.4904C11.8108 26.4976 11.5106 26.5159 11.2869 26.5387C11.177 26.5499 11.0749 26.5632 10.9943 26.5791C10.9573 26.5863 10.9042 26.598 10.8517 26.6172C10.8286 26.6256 10.7762 26.6459 10.7204 26.6847C10.692 26.7045 10.5 26.8378 10.5 27.1032H11.5C11.5 27.3633 11.3121 27.4912 11.2915 27.5055C11.2436 27.5389 11.2029 27.5535 11.1952 27.5563C11.1735 27.5643 11.1657 27.5645 11.1872 27.5603C11.2232 27.5532 11.2899 27.5436 11.3881 27.5336C11.5806 27.514 11.8539 27.4969 12.1584 27.4901L12.1359 26.4904ZM15.6453 25.5127C14.6003 26.1193 13.3681 26.4639 12.1364 26.4903L12.1579 27.4901C13.5562 27.4601 14.9541 27.0702 16.1474 26.3775L15.6453 25.5127ZM16.3951 25.0641L15.6397 25.516L16.1531 26.3742L16.9085 25.9222L16.3951 25.0641ZM15.6227 25.6697L16.49 25.9663L16.8136 25.02L15.9462 24.7235L15.6227 25.6697ZM12.6901 23.0261C12.866 23.6031 13.2817 24.1502 13.7885 24.5984C14.3008 25.0515 14.9417 25.4353 15.6217 25.6693L15.9472 24.7238C15.3961 24.5341 14.8688 24.2188 14.4509 23.8493C14.0274 23.4747 13.7506 23.0756 13.6467 22.7346L12.6901 23.0261ZM13.8958 22.0696C13.7028 22.0696 13.5404 22.0704 13.4132 22.0772C13.303 22.0831 13.1471 22.0952 13.0093 22.1544C12.9291 22.1889 12.8309 22.2491 12.753 22.3545C12.6731 22.4627 12.6444 22.5779 12.6377 22.6712C12.6273 22.8185 12.6726 22.9646 12.6873 23.0165L13.6495 22.7442C13.6393 22.708 13.6353 22.6918 13.6338 22.684C13.6318 22.6743 13.6383 22.6994 13.6352 22.7421C13.6316 22.7924 13.6145 22.8713 13.5572 22.9488C13.5019 23.0237 13.4374 23.0589 13.4044 23.0731C13.3747 23.0859 13.3598 23.0864 13.3769 23.0837C13.3918 23.0813 13.4195 23.0783 13.4666 23.0757C13.5623 23.0706 13.6972 23.0696 13.8958 23.0696V22.0696ZM14.6985 22.0556L13.8871 22.0697L13.9045 23.0695L14.7159 23.0554L14.6985 22.0556ZM13.8076 22.6825L14.4931 23.0073L14.9214 22.1037L14.2359 21.7788L13.8076 22.6825ZM11.6607 20.6518C12.0809 21.4676 12.9082 22.2286 13.7964 22.677L14.2471 21.7843C13.5125 21.4135 12.8569 20.7904 12.5497 20.1939L11.6607 20.6518ZM11.2463 18.1785C11.1328 18.2931 11.1051 18.4263 11.097 18.4686C11.0856 18.5283 11.0839 18.5834 11.0842 18.6228C11.0848 18.7036 11.0949 18.7911 11.1073 18.8721C11.1329 19.0384 11.1786 19.2428 11.2335 19.4507C11.341 19.8576 11.5027 20.3496 11.6621 20.6545L12.5483 20.1912C12.4419 19.9877 12.3028 19.5829 12.2004 19.1953C12.1504 19.006 12.1139 18.8388 12.0958 18.7204C12.0863 18.659 12.0842 18.626 12.0842 18.6156C12.0841 18.6094 12.085 18.6263 12.0793 18.656C12.0769 18.6684 12.0581 18.7799 11.9568 18.8822L11.2463 18.1785ZM12.4185 18.2118C12.248 18.1544 12.0757 18.0999 11.9373 18.065C11.871 18.0482 11.7931 18.0309 11.7197 18.0234C11.6855 18.0199 11.6258 18.0155 11.5579 18.0246C11.521 18.0295 11.3154 18.0563 11.1843 18.2548L12.0188 18.8059C11.9531 18.9053 11.8681 18.9562 11.8133 18.9806C11.7591 19.0047 11.7135 19.0127 11.6902 19.0158C11.6648 19.0192 11.6456 19.0193 11.6363 19.0192C11.6261 19.019 11.6196 19.0184 11.6181 19.0183C11.6155 19.018 11.6205 19.0184 11.6356 19.0214C11.6497 19.0242 11.6686 19.0285 11.6925 19.0345C11.7919 19.0596 11.9343 19.104 12.0996 19.1596L12.4185 18.2118ZM12.427 18.704C12.5647 18.85 12.6293 18.9334 12.6513 18.9698C12.6659 18.9941 12.6346 18.9534 12.6258 18.8708C12.6205 18.822 12.6216 18.7433 12.6594 18.6556C12.6992 18.563 12.7648 18.4958 12.8323 18.4537C12.8938 18.4154 12.9482 18.403 12.9744 18.3986C13.0019 18.394 13.0189 18.3949 13.0197 18.3949C13.0215 18.395 13.016 18.3948 13.0014 18.3925C12.9872 18.3902 12.9676 18.3865 12.9418 18.3804C12.8334 18.3551 12.6675 18.3027 12.4308 18.2161L12.0873 19.1553C12.3333 19.2452 12.5451 19.3147 12.7143 19.3542C12.7979 19.3737 12.8891 19.3904 12.9783 19.394C13.0497 19.397 13.2089 19.3973 13.3611 19.3025C13.4491 19.2477 13.5293 19.1639 13.5778 19.0511C13.6243 18.9432 13.6283 18.8405 13.62 18.764C13.6052 18.626 13.5447 18.5148 13.5075 18.4532C13.4259 18.3179 13.2964 18.1683 13.1544 18.0177L12.427 18.704ZM11.449 14.0222C10.8919 15.6937 11.2406 17.4903 12.4331 18.7104L13.1482 18.0113C12.2423 17.0846 11.9474 15.6894 12.3977 14.3384L11.449 14.0222ZM11.6893 13.3369L11.4515 14.0148L12.3951 14.3458L12.6329 13.6679L11.6893 13.3369ZM13.437 14.0659L12.5137 13.1478L11.8086 13.857L12.7319 14.775L13.437 14.0659ZM19.8068 17.2011C17.3736 16.8906 15.2486 15.8406 13.4343 14.0633L12.7345 14.7776C14.6975 16.7006 17.0212 17.8538 19.6802 18.193L19.8068 17.2011ZM20.5031 17.2854L19.8036 17.2007L19.6834 18.1934L20.3828 18.2782L20.5031 17.2854Z" fill="#82B5D1"/>
</svg>
