<svg width="42" height="42" viewBox="0 0 42 42" fill="none" xmlns="http://www.w3.org/2000/svg">
<path d="M22.0462 27.5634V28.0634H22.0734L22.1004 28.0605L22.0462 27.5634ZM22.6284 27.3135L22.9912 27.6576L22.9914 27.6574L22.6284 27.3135ZM20.7712 27.5634V27.0634H20.7564L20.7417 27.0643L20.7712 27.5634ZM15.48 25.1975L15.1226 25.5471L15.1227 25.5472L15.48 25.1975ZM10.3913 16.9546L9.92438 17.1335L9.92838 17.144L9.93285 17.1542L10.3913 16.9546ZM10.4028 16.422L10.7815 16.7485L10.7821 16.7478L10.4028 16.422ZM11.0288 16.2141L11.0256 15.714L11.0154 15.7143L11.0288 16.2141ZM14.0766 16.1947L14.1559 15.701L14.1149 15.6944L14.0734 15.6947L14.0766 16.1947ZM14.5691 16.3893L14.862 15.984L14.8619 15.984L14.5691 16.3893ZM14.8341 16.7406L15.298 16.5538L15.2958 16.5486L14.8341 16.7406ZM15.9788 19.0696L15.548 19.3235L15.5481 19.3236L15.9788 19.0696ZM18.2774 21.4704L18.0417 21.0294L18.0412 21.0296L18.2774 21.4704ZM18.7188 18.4172L18.2188 18.4114L18.2186 18.4316L18.22 18.4519L18.7188 18.4172ZM18.4016 16.9925L18.802 16.693L18.8018 16.6928L18.4016 16.9925ZM17.4552 16.5255L17.3903 17.0212L17.3905 17.0213L17.4552 16.5255ZM17.93 15.9365L18.1462 16.3874L18.1462 16.3874L17.93 15.9365ZM20.5917 15.6692L20.5969 15.1693L20.5966 15.1693L20.5917 15.6692ZM22.089 15.8157L21.9732 16.3021L21.9738 16.3022L22.089 15.8157ZM22.8181 17.9464L23.3177 17.9669L23.3177 17.9669L22.8181 17.9464ZM22.7757 19.7114L23.2755 19.7253L23.2755 19.7253L22.7757 19.7114ZM23.1908 21.4571L22.9228 21.8792L22.924 21.8799L23.1908 21.4571ZM25.4237 19.0983L25.8525 19.3556L25.8525 19.3555L25.4237 19.0983ZM26.608 16.6433L26.1558 16.4299L26.1478 16.447L26.141 16.4647L26.608 16.6433ZM26.8918 16.3053L26.6388 15.874L26.6381 15.8744L26.8918 16.3053ZM27.3061 16.2336L27.2399 16.7292L27.2744 16.7338L27.3091 16.7336L27.3061 16.2336ZM30.5135 16.2141L30.5166 16.7141L30.5444 16.7139L30.5721 16.7107L30.5135 16.2141ZM31.6331 16.5285L31.1631 16.6992L31.1636 16.7004L31.6331 16.5285ZM29.9626 19.7374L29.5654 19.4338L29.5653 19.4338L29.9626 19.7374ZM28.17 22.4929L27.6727 22.5451L27.6727 22.5451L28.17 22.4929ZM29.3585 23.9172L29.6953 23.5477L29.6951 23.5475L29.3585 23.9172ZM31.4575 26.2897L31.0211 26.5337L31.0211 26.5337L31.4575 26.2897ZM31.4766 26.3231L31.9027 26.0614L31.9016 26.0596L31.4766 26.3231ZM30.693 27.5634L30.6998 28.0634L30.7115 28.0632L30.7232 28.0625L30.693 27.5634ZM27.8434 27.6023L27.8366 27.1024L27.7919 27.103L27.7481 27.1115L27.8434 27.6023ZM26.4265 27.1783L26.7059 26.7637L26.7057 26.7635L26.4265 27.1783ZM25.1995 25.9882L25.5732 25.6561L25.5732 25.6561L25.1995 25.9882ZM23.5727 24.8369L23.424 24.3596L23.4237 24.3597L23.5727 24.8369ZM22.8027 26.7635L22.3027 26.7706L22.3028 26.7722L22.8027 26.7635ZM1.5 21C1.5 10.2304 10.2304 1.5 21 1.5V0.5C9.67816 0.5 0.5 9.67816 0.5 21H1.5ZM21 40.5C10.2304 40.5 1.5 31.7696 1.5 21H0.5C0.5 32.3218 9.67816 41.5 21 41.5V40.5ZM40.5 21C40.5 31.7696 31.7696 40.5 21 40.5V41.5C32.3218 41.5 41.5 32.3218 41.5 21H40.5ZM21 1.5C31.7696 1.5 40.5 10.2304 40.5 21H41.5C41.5 9.67816 32.3218 0.5 21 0.5V1.5ZM22.0462 27.5634C22.1004 28.0605 22.1005 28.0604 22.1007 28.0604C22.1007 28.0604 22.1008 28.0604 22.1009 28.0604C22.1011 28.0604 22.1013 28.0604 22.1014 28.0603C22.1018 28.0603 22.1022 28.0603 22.1026 28.0602C22.1034 28.0601 22.1043 28.06 22.1053 28.0599C22.1074 28.0597 22.1098 28.0594 22.1126 28.059C22.1181 28.0583 22.1252 28.0574 22.1336 28.0562C22.1505 28.0538 22.1729 28.0503 22.1997 28.0454C22.2527 28.0357 22.3257 28.0199 22.4078 27.9951C22.5571 27.9501 22.8029 27.8561 22.9912 27.6576L22.2657 26.9694C22.2659 26.9691 22.2632 26.9721 22.2558 26.9774C22.2484 26.9826 22.2378 26.9892 22.2237 26.9966C22.1945 27.0118 22.1584 27.0258 22.1189 27.0377C22.0802 27.0494 22.0446 27.0571 22.0193 27.0618C22.0069 27.0641 21.9977 27.0655 21.9926 27.0662C21.9902 27.0665 21.9888 27.0667 21.9886 27.0667C21.9885 27.0667 21.9888 27.0667 21.9893 27.0667C21.9896 27.0666 21.99 27.0666 21.9904 27.0665C21.9906 27.0665 21.9909 27.0665 21.9911 27.0664C21.9913 27.0664 21.9914 27.0664 21.9916 27.0664C21.9916 27.0664 21.9917 27.0664 21.9918 27.0664C21.9919 27.0664 21.992 27.0663 22.0462 27.5634ZM20.7712 28.0634H22.0462V27.0634H20.7712V28.0634ZM15.1227 25.5472C16.4347 26.8877 17.841 27.5184 18.9239 27.8124C19.4645 27.9592 19.9247 28.0221 20.2533 28.0482C20.4178 28.0613 20.5498 28.0651 20.643 28.0656C20.6896 28.0658 20.7265 28.0652 20.753 28.0644C20.7663 28.0641 20.777 28.0637 20.7849 28.0633C20.7889 28.0631 20.7922 28.063 20.7948 28.0628C20.7961 28.0628 20.7973 28.0627 20.7982 28.0627C20.7987 28.0626 20.7992 28.0626 20.7996 28.0626C20.7998 28.0626 20.8 28.0626 20.8001 28.0626C20.8004 28.0625 20.8006 28.0625 20.7712 27.5634C20.7417 27.0643 20.7419 27.0643 20.7422 27.0642C20.7422 27.0642 20.7424 27.0642 20.7425 27.0642C20.7427 27.0642 20.7429 27.0642 20.7431 27.0642C20.7434 27.0642 20.7435 27.0642 20.7434 27.0642C20.7433 27.0642 20.7425 27.0642 20.7411 27.0643C20.7383 27.0644 20.7328 27.0646 20.7249 27.0648C20.709 27.0653 20.6831 27.0658 20.648 27.0656C20.5776 27.0652 20.4705 27.0623 20.3325 27.0513C20.0563 27.0294 19.6583 26.9756 19.1859 26.8473C18.2428 26.5913 17.0035 26.0391 15.8373 24.8477L15.1227 25.5472ZM10.3913 16.9546C9.93285 17.1542 9.93288 17.1543 9.93292 17.1544C9.93295 17.1544 9.933 17.1546 9.93305 17.1547C9.93315 17.1549 9.93329 17.1552 9.93347 17.1556C9.93382 17.1564 9.93432 17.1576 9.93496 17.159C9.93624 17.162 9.93809 17.1662 9.94052 17.1717C9.94537 17.1827 9.95249 17.1989 9.96182 17.2199C9.98049 17.2619 10.008 17.3234 10.0439 17.4023C10.1156 17.5602 10.2207 17.7879 10.3552 18.0696C10.624 18.6326 11.0108 19.4121 11.4831 20.2793C12.4219 22.0028 13.7209 24.1144 15.1226 25.5471L15.8374 24.8478C14.5367 23.5183 13.2913 21.5084 12.3613 19.801C11.8993 18.9528 11.5206 18.1896 11.2576 17.6387C11.1261 17.3633 11.0237 17.1414 10.9543 16.9887C10.9197 16.9124 10.8933 16.8534 10.8757 16.8138C10.8669 16.794 10.8602 16.779 10.8559 16.7691C10.8537 16.7642 10.8521 16.7605 10.8511 16.7582C10.8506 16.757 10.8502 16.7561 10.85 16.7556C10.8499 16.7553 10.8498 16.7552 10.8497 16.7551C10.8497 16.755 10.8497 16.755 10.8497 16.755C10.8497 16.755 10.8497 16.755 10.3913 16.9546ZM10.024 16.0956C9.79656 16.3595 9.82752 16.6927 9.846 16.8233C9.85813 16.909 9.87687 16.9833 9.89196 17.0353C9.89967 17.0618 9.90686 17.084 9.91252 17.1005C9.91536 17.1088 9.91784 17.1158 9.91985 17.1213C9.92085 17.1241 9.92174 17.1265 9.9225 17.1285C9.92288 17.1296 9.92323 17.1305 9.92354 17.1313C9.9237 17.1317 9.92384 17.1321 9.92398 17.1325C9.92405 17.1327 9.92412 17.1328 9.92419 17.133C9.92422 17.1331 9.92427 17.1332 9.92428 17.1333C9.92433 17.1334 9.92438 17.1335 10.3913 16.9546C10.8582 16.7757 10.8582 16.7759 10.8583 16.776C10.8583 16.776 10.8583 16.7761 10.8584 16.7762C10.8584 16.7763 10.8585 16.7765 10.8585 16.7766C10.8586 16.7769 10.8587 16.7772 10.8588 16.7774C10.859 16.7779 10.8592 16.7783 10.8593 16.7786C10.8595 16.7793 10.8597 16.7797 10.8597 16.7797C10.8598 16.7799 10.8594 16.779 10.8588 16.7771C10.8575 16.7734 10.8551 16.7661 10.8522 16.7562C10.8462 16.7353 10.8398 16.709 10.8361 16.6832C10.8322 16.6551 10.8337 16.6437 10.8333 16.6471C10.8328 16.6504 10.8261 16.6967 10.7815 16.7485L10.024 16.0956ZM11.0288 16.2141C11.0154 15.7143 11.0153 15.7143 11.0152 15.7143C11.0152 15.7143 11.015 15.7143 11.015 15.7143C11.0148 15.7143 11.0147 15.7143 11.0145 15.7143C11.0142 15.7143 11.0138 15.7143 11.0134 15.7143C11.0126 15.7144 11.0117 15.7144 11.0107 15.7144C11.0087 15.7145 11.0063 15.7146 11.0034 15.7147C10.9976 15.7149 10.99 15.7153 10.9809 15.7158C10.9627 15.7168 10.9381 15.7185 10.9086 15.7212C10.8505 15.7266 10.7693 15.7364 10.6793 15.7547C10.5909 15.7727 10.4822 15.8011 10.3737 15.8478C10.2691 15.8928 10.1335 15.9681 10.0234 16.0963L10.7821 16.7478C10.756 16.7782 10.7406 16.7785 10.7692 16.7662C10.7939 16.7556 10.8311 16.7443 10.8783 16.7347C10.9238 16.7255 10.9676 16.72 11.0006 16.717C11.0167 16.7155 11.0291 16.7147 11.0367 16.7142C11.0404 16.714 11.0429 16.7139 11.0439 16.7139C11.0444 16.7139 11.0445 16.7139 11.0442 16.7139C11.0441 16.7139 11.0439 16.7139 11.0435 16.7139C11.0434 16.7139 11.0432 16.7139 11.043 16.7139C11.0428 16.7139 11.0427 16.7139 11.0426 16.7139C11.0425 16.7139 11.0424 16.7139 11.0424 16.7139C11.0423 16.7139 11.0422 16.7139 11.0288 16.2141ZM14.0734 15.6947L11.0256 15.7141L11.032 16.7141L14.0798 16.6946L14.0734 15.6947ZM14.8619 15.984C14.6964 15.8644 14.5152 15.7961 14.3933 15.7585C14.3291 15.7387 14.2732 15.7249 14.2324 15.7159C14.2118 15.7114 14.1946 15.708 14.1817 15.7055C14.1752 15.7043 14.1698 15.7033 14.1655 15.7026C14.1633 15.7022 14.1614 15.7019 14.1598 15.7016C14.159 15.7015 14.1583 15.7014 14.1577 15.7013C14.1573 15.7012 14.157 15.7012 14.1567 15.7011C14.1566 15.7011 14.1564 15.7011 14.1563 15.701C14.1562 15.701 14.1561 15.701 14.1561 15.701C14.156 15.701 14.1559 15.701 14.0766 16.1947C13.9973 16.6883 13.9972 16.6883 13.9971 16.6883C13.9971 16.6883 13.997 16.6883 13.997 16.6883C13.9968 16.6882 13.9967 16.6882 13.9966 16.6882C13.9964 16.6882 13.9962 16.6881 13.996 16.6881C13.9956 16.688 13.9953 16.688 13.9951 16.688C13.9946 16.6879 13.9943 16.6878 13.9943 16.6878C13.9943 16.6878 13.9952 16.688 13.997 16.6883C14.0006 16.689 14.0074 16.6903 14.017 16.6924C14.0363 16.6967 14.065 16.7037 14.0983 16.714C14.1713 16.7365 14.2362 16.7656 14.2763 16.7945L14.8619 15.984ZM14.8341 16.7406C15.2958 16.5486 15.2958 16.5485 15.2957 16.5484C15.2957 16.5484 15.2957 16.5483 15.2957 16.5482C15.2956 16.5481 15.2955 16.5479 15.2955 16.5478C15.2954 16.5475 15.2952 16.5472 15.2951 16.5468C15.2948 16.5462 15.2945 16.5455 15.2942 16.5447C15.2935 16.5432 15.2928 16.5414 15.2919 16.5394C15.2902 16.5354 15.288 16.5305 15.2854 16.5247C15.2803 16.5133 15.2733 16.4985 15.2647 16.481C15.2475 16.4464 15.2227 16.3996 15.1902 16.3472C15.1297 16.2498 15.0225 16.1 14.862 15.984L14.2763 16.7945C14.2858 16.8014 14.3111 16.8273 14.3406 16.8748C14.3531 16.8949 14.3627 16.9129 14.3686 16.9249C14.3715 16.9308 14.3733 16.9347 14.374 16.9363C14.3744 16.937 14.3744 16.9371 14.3742 16.9366C14.374 16.9363 14.3738 16.9358 14.3735 16.9351C14.3734 16.9348 14.3732 16.9344 14.3731 16.9339C14.373 16.9337 14.3729 16.9335 14.3728 16.9333C14.3727 16.9331 14.3727 16.933 14.3726 16.9329C14.3726 16.9328 14.3725 16.9327 14.3725 16.9327C14.3725 16.9326 14.3724 16.9325 14.8341 16.7406ZM16.4095 18.8157C16.0951 18.2825 15.8168 17.7167 15.616 17.281C15.5159 17.0639 15.4359 16.8808 15.3811 16.7525C15.3537 16.6884 15.3326 16.638 15.3185 16.604C15.3115 16.587 15.3062 16.5741 15.3027 16.5656C15.301 16.5614 15.2997 16.5582 15.2989 16.5562C15.2985 16.5553 15.2983 16.5545 15.2981 16.5541C15.298 16.5539 15.2979 16.5538 15.2979 16.5537C15.2979 16.5537 15.2979 16.5537 15.2979 16.5537C15.2979 16.5537 15.2979 16.5537 15.2979 16.5537C15.2979 16.5537 15.2979 16.5538 14.8341 16.7406C14.3703 16.9273 14.3704 16.9274 14.3704 16.9274C14.3704 16.9274 14.3704 16.9275 14.3704 16.9275C14.3704 16.9276 14.3705 16.9277 14.3705 16.9278C14.3706 16.9281 14.3708 16.9284 14.3709 16.9288C14.3712 16.9295 14.3717 16.9306 14.3722 16.932C14.3733 16.9347 14.3749 16.9385 14.3769 16.9435C14.381 16.9535 14.3869 16.9679 14.3946 16.9865C14.41 17.0237 14.4325 17.0775 14.4615 17.1453C14.5194 17.2809 14.6032 17.4727 14.7078 17.6996C14.9163 18.1518 15.2103 18.7506 15.548 19.3235L16.4095 18.8157ZM18.0412 21.0296C18.0409 21.0299 18.0501 21.0253 18.0652 21.024C18.0801 21.0228 18.0846 21.0261 18.0735 21.0224C18.0418 21.0118 17.9522 20.967 17.7963 20.8121C17.4841 20.502 17.0448 19.8928 16.4094 18.8156L15.5481 19.3236C16.1867 20.4064 16.6808 21.1134 17.0914 21.5215C17.2969 21.7257 17.5161 21.8906 17.7569 21.9709C18.0226 22.0596 18.2834 22.0344 18.5136 21.9111L18.0412 21.0296ZM18.7188 18.4172C18.22 18.4519 18.22 18.4518 18.22 18.4518C18.22 18.4518 18.22 18.4518 18.22 18.4518C18.22 18.4518 18.22 18.4518 18.22 18.4519C18.22 18.4521 18.22 18.4524 18.22 18.4529C18.2201 18.4539 18.2202 18.4555 18.2204 18.4578C18.2207 18.4622 18.2211 18.4692 18.2217 18.4785C18.2228 18.4971 18.2245 18.5249 18.2263 18.5608C18.2301 18.6326 18.2349 18.7362 18.2387 18.862C18.2463 19.1144 18.25 19.4513 18.2349 19.7956C18.2196 20.1443 18.1859 20.4795 18.1255 20.7369C18.0952 20.8659 18.0625 20.9561 18.0333 21.0125C18.0015 21.074 17.9953 21.0542 18.0417 21.0294L18.5132 21.9113C18.7171 21.8023 18.8429 21.6238 18.9213 21.4723C19.0024 21.3157 19.0584 21.1385 19.099 20.9654C19.1804 20.6187 19.2176 20.2117 19.2339 19.8393C19.2504 19.4623 19.2463 19.0991 19.2382 18.8318C19.2341 18.6976 19.2291 18.5864 19.225 18.5084C19.2229 18.4693 19.2211 18.4384 19.2198 18.4171C19.2191 18.4064 19.2186 18.398 19.2182 18.3922C19.218 18.3893 19.2179 18.3871 19.2178 18.3854C19.2177 18.3846 19.2177 18.384 19.2176 18.3835C19.2176 18.3832 19.2176 18.383 19.2176 18.3829C19.2176 18.3828 19.2176 18.3827 19.2176 18.3827C19.2176 18.3826 19.2176 18.3825 18.7188 18.4172ZM18.0012 17.292C18.0805 17.398 18.1498 17.6365 18.1874 17.9325C18.2043 18.0655 18.2122 18.1877 18.2158 18.2768C18.2177 18.3211 18.2184 18.3564 18.2187 18.3799C18.2188 18.3916 18.2188 18.4004 18.2188 18.4058C18.2188 18.4084 18.2188 18.4103 18.2188 18.4112C18.2188 18.4117 18.2188 18.412 18.2188 18.412C18.2188 18.412 18.2188 18.412 18.2188 18.4119C18.2188 18.4118 18.2188 18.4117 18.2188 18.4117C18.2188 18.4116 18.2188 18.4115 18.2188 18.4115C18.2188 18.4114 18.2188 18.4114 18.7188 18.4172C19.2187 18.423 19.2187 18.4229 19.2187 18.4228C19.2187 18.4228 19.2187 18.4227 19.2187 18.4226C19.2187 18.4225 19.2187 18.4223 19.2187 18.4222C19.2187 18.4218 19.2188 18.4214 19.2188 18.421C19.2188 18.42 19.2188 18.4189 19.2188 18.4175C19.2188 18.4147 19.2188 18.4109 19.2188 18.4063C19.2188 18.397 19.2188 18.3842 19.2186 18.3681C19.2182 18.336 19.2173 18.2909 19.215 18.2359C19.2105 18.1265 19.2008 17.9749 19.1794 17.8067C19.1406 17.5003 19.0513 17.0264 18.802 16.693L18.0012 17.292ZM17.3905 17.0213C17.4721 17.0319 17.6011 17.0562 17.7278 17.1065C17.8576 17.1581 17.9492 17.2226 18.0013 17.2922L18.8018 16.6928C18.5993 16.4224 18.3237 16.2672 18.0969 16.1771C17.867 16.0859 17.6502 16.0467 17.5199 16.0297L17.3905 17.0213ZM17.7137 15.4857C17.4563 15.6092 17.2344 15.8024 17.0952 15.9827C17.0338 16.0624 16.9438 16.1957 16.9138 16.3573C16.8982 16.4413 16.8867 16.6014 16.9845 16.7615C17.093 16.9393 17.2656 17.0049 17.3903 17.0212L17.5201 16.0297C17.6018 16.0404 17.7455 16.0889 17.8379 16.2403C17.9196 16.374 17.9047 16.4984 17.897 16.5399C17.8828 16.6162 17.8538 16.6366 17.8869 16.5937C17.9368 16.529 18.0384 16.4391 18.1462 16.3874L17.7137 15.4857ZM20.5966 15.1693C20.0248 15.1636 19.4767 15.1642 18.9986 15.2015C18.5297 15.238 18.0743 15.3128 17.7137 15.4857L18.1462 16.3874C18.3344 16.2971 18.6376 16.2326 19.0762 16.1984C19.5056 16.165 20.0139 16.1636 20.5868 16.1692L20.5966 15.1693ZM22.2048 15.3293C21.815 15.2365 21.5206 15.1788 20.5969 15.1693L20.5865 16.1692C21.447 16.1781 21.666 16.229 21.9732 16.3021L22.2048 15.3293ZM23.3177 17.9669C23.3435 17.3395 23.3724 16.7639 23.2616 16.3318C23.2008 16.0946 23.0917 15.8667 22.8965 15.6809C22.7037 15.4974 22.4643 15.3908 22.2042 15.3292L21.9738 16.3022C22.1181 16.3364 22.1789 16.3784 22.2071 16.4052C22.233 16.4299 22.2658 16.4742 22.293 16.5802C22.3581 16.8342 22.3472 17.2282 22.3185 17.9259L23.3177 17.9669ZM23.2829 19.3339C23.2829 18.8141 23.3014 18.3635 23.3177 17.9669L22.3185 17.9259C22.3022 18.3219 22.2829 18.7912 22.2829 19.3339H23.2829ZM23.2755 19.7253C23.2791 19.596 23.2829 19.4615 23.2829 19.3339H22.2829C22.2829 19.445 22.2796 19.565 22.2759 19.6975L23.2755 19.7253ZM23.4589 21.0349C23.4159 21.0077 23.3414 20.923 23.2993 20.6532C23.2585 20.3918 23.2657 20.0763 23.2755 19.7253L22.2759 19.6975C22.2667 20.0254 22.2536 20.438 22.3112 20.8073C22.3675 21.1683 22.5101 21.6171 22.9228 21.8792L23.4589 21.0349ZM24.995 18.841C24.2869 20.0209 23.8189 20.5933 23.5277 20.8514C23.4576 20.9134 23.4041 20.9516 23.366 20.9745C23.3278 20.9974 23.3103 21.0019 23.3116 21.0015C23.3312 20.9964 23.3946 20.9944 23.4577 21.0342L22.924 21.8799C23.1039 21.9934 23.3263 22.031 23.5633 21.9693C23.7785 21.9134 23.9857 21.7817 24.1909 21.5998C24.6006 21.2367 25.1321 20.5559 25.8525 19.3556L24.995 18.841ZM26.608 16.6433C26.141 16.4647 26.141 16.4647 26.141 16.4646C26.141 16.4646 26.141 16.4646 26.141 16.4646C26.141 16.4646 26.141 16.4646 26.141 16.4646C26.141 16.4647 26.1409 16.4648 26.1409 16.4651C26.1407 16.4655 26.1404 16.4663 26.14 16.4673C26.1392 16.4695 26.1379 16.4729 26.1361 16.4774C26.1325 16.4866 26.1271 16.5005 26.1198 16.5188C26.1054 16.5555 26.0837 16.6098 26.0555 16.6787C25.999 16.8166 25.9166 17.0127 25.8134 17.2434C25.6061 17.7069 25.3192 18.3006 24.995 18.8411L25.8525 19.3555C26.2054 18.7673 26.5107 18.1335 26.7263 17.6517C26.8345 17.4097 26.9212 17.2036 26.9809 17.0576C27.0109 16.9845 27.0341 16.9263 27.05 16.8861C27.0579 16.8659 27.064 16.8503 27.0683 16.8394C27.0704 16.834 27.072 16.8298 27.0731 16.8269C27.0737 16.8254 27.0741 16.8242 27.0745 16.8234C27.0746 16.823 27.0747 16.8226 27.0748 16.8224C27.0749 16.8222 27.0749 16.8221 27.075 16.822C27.075 16.822 27.075 16.8219 27.075 16.8219C27.075 16.8219 27.0751 16.8218 26.608 16.6433ZM26.6381 15.8744C26.4587 15.9801 26.3379 16.1353 26.2735 16.2288C26.2377 16.2808 26.2099 16.3279 26.1907 16.3625C26.181 16.38 26.1732 16.3949 26.1674 16.4063C26.1645 16.412 26.1621 16.4169 26.1602 16.4209C26.1592 16.4228 26.1584 16.4246 26.1576 16.4261C26.1573 16.4268 26.157 16.4275 26.1567 16.4282C26.1565 16.4285 26.1564 16.4288 26.1562 16.4291C26.1562 16.4292 26.1561 16.4293 26.156 16.4295C26.156 16.4295 26.156 16.4296 26.1559 16.4297C26.1559 16.4298 26.1558 16.4299 26.608 16.6433C27.0602 16.8566 27.0602 16.8567 27.0601 16.8568C27.0601 16.8569 27.0601 16.8569 27.06 16.857C27.06 16.8571 27.0599 16.8572 27.0599 16.8574C27.0598 16.8576 27.0597 16.8578 27.0596 16.858C27.0594 16.8584 27.0592 16.8588 27.0591 16.8591C27.0588 16.8597 27.0586 16.8601 27.0585 16.8603C27.0583 16.8607 27.0584 16.8604 27.0589 16.8595C27.0599 16.8575 27.0621 16.8531 27.0656 16.8469C27.0727 16.834 27.0836 16.8156 27.0972 16.7958C27.1317 16.7457 27.1528 16.7318 27.1456 16.7361L26.6381 15.8744ZM27.3061 16.2336C27.3722 15.738 27.3721 15.7379 27.372 15.7379C27.3719 15.7379 27.3718 15.7379 27.3717 15.7379C27.3715 15.7379 27.3713 15.7378 27.3712 15.7378C27.3708 15.7378 27.3704 15.7377 27.37 15.7377C27.3692 15.7376 27.3683 15.7375 27.3674 15.7373C27.3655 15.7371 27.3634 15.7368 27.361 15.7366C27.3563 15.736 27.3506 15.7354 27.3439 15.7348C27.3306 15.7335 27.3135 15.7321 27.2932 15.731C27.2531 15.7288 27.1982 15.7277 27.1345 15.7316C27.0165 15.7388 26.8235 15.7656 26.6388 15.874L27.1448 16.7365C27.1365 16.7414 27.1507 16.7324 27.1956 16.7297C27.2134 16.7286 27.229 16.7289 27.239 16.7295C27.2438 16.7297 27.2467 16.73 27.2471 16.7301C27.2473 16.7301 27.2469 16.73 27.2457 16.7299C27.2451 16.7298 27.2443 16.7297 27.2434 16.7296C27.2429 16.7296 27.2424 16.7295 27.2418 16.7294C27.2415 16.7294 27.2412 16.7293 27.2409 16.7293C27.2407 16.7293 27.2406 16.7293 27.2404 16.7292C27.2403 16.7292 27.2402 16.7292 27.2402 16.7292C27.24 16.7292 27.2399 16.7292 27.3061 16.2336ZM30.5105 15.7141L27.303 15.7336L27.3091 16.7336L30.5166 16.7141L30.5105 15.7141ZM32.1031 16.3579C32.0005 16.0754 31.7763 15.9217 31.5945 15.8414C31.4131 15.7613 31.2185 15.7281 31.063 15.7131C30.9024 15.6976 30.7524 15.6989 30.6452 15.7035C30.5908 15.7058 30.5455 15.7091 30.5128 15.7119C30.4964 15.7133 30.4831 15.7145 30.4734 15.7155C30.4685 15.716 30.4645 15.7165 30.4614 15.7168C30.4599 15.717 30.4585 15.7171 30.4575 15.7173C30.4569 15.7173 30.4565 15.7174 30.456 15.7174C30.4558 15.7175 30.4556 15.7175 30.4555 15.7175C30.4554 15.7175 30.4552 15.7175 30.4552 15.7175C30.4551 15.7175 30.455 15.7176 30.5135 16.2141C30.5721 16.7107 30.572 16.7107 30.5719 16.7107C30.5718 16.7107 30.5717 16.7107 30.5717 16.7107C30.5716 16.7107 30.5715 16.7107 30.5714 16.7108C30.5712 16.7108 30.571 16.7108 30.571 16.7108C30.5708 16.7108 30.5709 16.7108 30.5712 16.7108C30.5718 16.7107 30.5732 16.7106 30.5754 16.7103C30.5798 16.7099 30.5874 16.7091 30.5977 16.7083C30.6184 16.7065 30.6496 16.7042 30.688 16.7026C30.7664 16.6992 30.8672 16.6989 30.9671 16.7085C31.072 16.7186 31.1476 16.7372 31.1907 16.7562C31.2333 16.775 31.188 16.7676 31.1631 16.6992L32.1031 16.3579ZM30.3598 20.041C31.0221 19.1747 31.5011 18.4573 31.7951 17.887C31.942 17.6023 32.0514 17.3376 32.1108 17.0979C32.1683 16.8661 32.1927 16.6028 32.1026 16.3567L31.1636 16.7004C31.1554 16.6781 31.1758 16.7135 31.1402 16.8574C31.1065 16.9934 31.0338 17.1815 30.9063 17.4287C30.6518 17.9223 30.2137 18.5856 29.5654 19.4338L30.3598 20.041ZM28.6673 22.4408C28.6614 22.3843 28.6805 22.2448 28.9861 21.8173C29.282 21.4033 29.7179 20.8811 30.3599 20.041L29.5653 19.4338C28.9641 20.2205 28.476 20.8112 28.1725 21.2358C27.8787 21.6469 27.6231 22.0718 27.6727 22.5451L28.6673 22.4408ZM29.6951 23.5475C29.3081 23.1951 29.0456 22.9572 28.8697 22.7598C28.6938 22.5625 28.671 22.4761 28.6673 22.4408L27.6727 22.5451C27.7096 22.8968 27.9037 23.179 28.1232 23.4253C28.3427 23.6715 28.6543 23.9522 29.0218 24.2869L29.6951 23.5475ZM31.8939 26.0457C31.7638 25.8129 31.3064 25.016 29.6953 23.5477L29.0217 24.2868C30.5612 25.6898 30.9483 26.4036 31.0211 26.5337L31.8939 26.0457ZM31.9016 26.0596C31.9033 26.0624 31.9043 26.0641 31.9043 26.0641C31.9044 26.0643 31.904 26.0637 31.9031 26.0621C31.9011 26.0585 31.8984 26.0538 31.8939 26.0457L31.0211 26.5337C31.0266 26.5436 31.0397 26.5672 31.0516 26.5865L31.9016 26.0596ZM30.693 27.5634C30.7232 28.0625 30.7234 28.0625 30.7236 28.0625C30.7237 28.0625 30.7239 28.0624 30.724 28.0624C30.7243 28.0624 30.7247 28.0624 30.725 28.0624C30.7257 28.0623 30.7265 28.0623 30.7274 28.0622C30.7292 28.0621 30.7314 28.0619 30.7339 28.0618C30.7389 28.0614 30.7454 28.0609 30.7532 28.0602C30.7687 28.0588 30.7897 28.0568 30.8151 28.0537C30.8655 28.0477 30.935 28.0376 31.0154 28.0211C31.1696 27.9894 31.3935 27.9283 31.6022 27.8061C31.8127 27.6829 32.0557 27.4676 32.1387 27.1175C32.2209 26.7706 32.1175 26.4112 31.9027 26.0614L31.0505 26.5847C31.1184 26.6953 31.1477 26.7735 31.1594 26.8227C31.1651 26.8467 31.1665 26.863 31.1667 26.8725C31.1668 26.8818 31.1658 26.8861 31.1657 26.8868C31.1655 26.8874 31.1655 26.8874 31.1654 26.8876C31.1651 26.8881 31.1638 26.8905 31.1599 26.8951C31.1514 26.9049 31.1327 26.9222 31.0972 26.943C31.0217 26.9872 30.9172 27.0204 30.8142 27.0416C30.7659 27.0515 30.7245 27.0574 30.6962 27.0608C30.6822 27.0625 30.6718 27.0635 30.6659 27.064C30.663 27.0643 30.6612 27.0644 30.6606 27.0645C30.6603 27.0645 30.6603 27.0645 30.6607 27.0644C30.6609 27.0644 30.6612 27.0644 30.6615 27.0644C30.6617 27.0644 30.6619 27.0644 30.6621 27.0644C30.6622 27.0643 30.6624 27.0643 30.6624 27.0643C30.6626 27.0643 30.6628 27.0643 30.693 27.5634ZM27.8503 28.1023L30.6998 28.0634L30.6862 27.0634L27.8366 27.1024L27.8503 28.1023ZM26.147 27.5929C26.6148 27.9081 27.0398 28.0397 27.3626 28.0883C27.523 28.1124 27.656 28.1158 27.7543 28.112C27.8034 28.1102 27.844 28.1065 27.875 28.1028C27.8905 28.101 27.9036 28.0991 27.9143 28.0974C27.9196 28.0966 27.9243 28.0958 27.9284 28.0951C27.9305 28.0947 27.9324 28.0944 27.9341 28.094C27.935 28.0939 27.9358 28.0937 27.9366 28.0936C27.937 28.0935 27.9373 28.0934 27.9377 28.0934C27.9379 28.0933 27.9382 28.0933 27.9383 28.0932C27.9385 28.0932 27.9388 28.0931 27.8434 27.6023C27.7481 27.1115 27.7483 27.1115 27.7486 27.1114C27.7487 27.1114 27.7489 27.1113 27.7491 27.1113C27.7494 27.1112 27.7498 27.1112 27.7501 27.1111C27.7507 27.111 27.7513 27.1109 27.7519 27.1108C27.753 27.1106 27.754 27.1104 27.7549 27.1102C27.7566 27.1099 27.7578 27.1097 27.7584 27.1096C27.7598 27.1094 27.759 27.1096 27.7562 27.1099C27.7506 27.1106 27.7371 27.112 27.7163 27.1128C27.6748 27.1143 27.6046 27.1135 27.5114 27.0994C27.3271 27.0717 27.0437 26.9913 26.7059 26.7637L26.147 27.5929ZM24.8257 26.3203C25.2055 26.7477 25.6619 27.2663 26.1472 27.593L26.7057 26.7635C26.3472 26.5221 25.9789 26.1126 25.5732 25.6561L24.8257 26.3203ZM23.7214 25.3143C23.6948 25.3226 23.7648 25.2819 24.0229 25.492C24.2574 25.6829 24.5169 25.9727 24.8257 26.3203L25.5732 25.6561C25.2823 25.3286 24.9648 24.9692 24.6541 24.7164C24.3671 24.4828 23.9236 24.204 23.424 24.3596L23.7214 25.3143ZM22.8027 26.7635C23.3026 26.7563 23.3026 26.7565 23.3026 26.7566C23.3026 26.7566 23.3026 26.7567 23.3026 26.7567C23.3027 26.7568 23.3027 26.7569 23.3027 26.757C23.3027 26.7571 23.3027 26.7571 23.3027 26.757C23.3027 26.7568 23.3026 26.7563 23.3026 26.7553C23.3026 26.7535 23.3026 26.7501 23.3026 26.7453C23.3026 26.7357 23.3027 26.7206 23.3031 26.7005C23.3039 26.6604 23.3058 26.6012 23.3104 26.5288C23.3196 26.3824 23.3392 26.1896 23.3796 25.9945C23.4208 25.7951 23.4787 25.6186 23.552 25.4899C23.6249 25.3617 23.6866 25.3252 23.7217 25.3142L23.4237 24.3597C23.0619 24.4726 22.8288 24.7389 22.6829 24.9952C22.5373 25.251 22.4523 25.5406 22.4003 25.7918C22.3475 26.0473 22.3234 26.2897 22.3123 26.4659C22.3067 26.5547 22.3043 26.6286 22.3033 26.6812C22.3028 26.7076 22.3026 26.7287 22.3026 26.7438C22.3026 26.7514 22.3026 26.7575 22.3027 26.762C22.3027 26.7642 22.3027 26.7661 22.3027 26.7675C22.3027 26.7683 22.3027 26.7689 22.3027 26.7694C22.3027 26.7697 22.3027 26.7699 22.3027 26.7701C22.3027 26.7702 22.3027 26.7703 22.3027 26.7704C22.3027 26.7705 22.3027 26.7706 22.8027 26.7635ZM22.9914 27.6574C23.1817 27.4566 23.2481 27.2032 23.2749 27.0579C23.29 26.9766 23.2968 26.9048 23.2999 26.853C23.3015 26.8268 23.3022 26.8048 23.3025 26.7882C23.3027 26.7799 23.3027 26.7728 23.3027 26.7672C23.3027 26.7644 23.3027 26.762 23.3027 26.7599C23.3027 26.7589 23.3027 26.7579 23.3027 26.7571C23.3026 26.7566 23.3026 26.7562 23.3026 26.7559C23.3026 26.7557 23.3026 26.7555 23.3026 26.7553C23.3026 26.7552 23.3026 26.7551 23.3026 26.755C23.3026 26.7549 23.3026 26.7548 22.8027 26.7635C22.3028 26.7722 22.3028 26.7721 22.3028 26.7719C22.3028 26.7719 22.3028 26.7718 22.3028 26.7717C22.3028 26.7716 22.3028 26.7714 22.3028 26.7713C22.3028 26.771 22.3027 26.7707 22.3027 26.7704C22.3027 26.7699 22.3027 26.7695 22.3027 26.7691C22.3027 26.7684 22.3027 26.768 22.3027 26.7679C22.3027 26.7677 22.3027 26.7685 22.3027 26.7704C22.3026 26.7742 22.3024 26.7818 22.3018 26.7922C22.3005 26.8138 22.2976 26.8439 22.2916 26.8762C22.2764 26.9582 22.2557 26.9799 22.2655 26.9696L22.9914 27.6574Z" fill="#82B5D1"/>
</svg>
