<svg width="42" height="42" viewBox="0 0 42 42" fill="none" xmlns="http://www.w3.org/2000/svg">
<path d="M23.085 32.7596V33.2596H23.585V32.7596H23.085ZM23.085 21.8785V21.3785H22.585V21.8785H23.085ZM18.5829 32.7596H18.0829V33.2596H18.5829V32.7596ZM18.5829 21.8789H19.0829V21.3789H18.5829V21.8789ZM16.3337 21.8789H15.8337V22.3789H16.3337V21.8789ZM16.3337 18.1293V17.6293H15.8337V18.1293H16.3337ZM18.5829 18.1293V18.6293H19.0829V18.1293H18.5829ZM26.4654 11H26.9654V10.5H26.4654V11ZM26.4654 14.7501V15.2501H26.9654V14.7501H26.4654ZM23.0901 16.2521L23.5901 16.2534V16.2521H23.0901ZM23.085 18.1288L22.585 18.1275L22.5836 18.6288H23.085V18.1288ZM26.4867 18.1288L26.9839 18.1816L27.0425 17.6288H26.4867V18.1288ZM26.0886 21.8785V22.3785H26.5383L26.5858 21.9313L26.0886 21.8785ZM1.5 21C1.5 10.2304 10.2304 1.5 21 1.5V0.5C9.67816 0.5 0.5 9.67816 0.5 21H1.5ZM21 40.5C10.2304 40.5 1.5 31.7696 1.5 21H0.5C0.5 32.3218 9.67816 41.5 21 41.5V40.5ZM40.5 21C40.5 31.7696 31.7696 40.5 21 40.5V41.5C32.3218 41.5 41.5 32.3218 41.5 21H40.5ZM21 1.5C31.7696 1.5 40.5 10.2304 40.5 21H41.5C41.5 9.67816 32.3218 0.5 21 0.5V1.5ZM23.585 32.7596V21.8785H22.585V32.7596H23.585ZM18.5829 33.2596H23.085V32.2596H18.5829V33.2596ZM18.0829 21.8789V32.7596H19.0829V21.8789H18.0829ZM16.3337 22.3789H18.5829V21.3789H16.3337V22.3789ZM15.8337 18.1293V21.8789H16.8337V18.1293H15.8337ZM18.5829 17.6293H16.3337V18.6293H18.5829V17.6293ZM18.0829 15.878V18.1293H19.0829V15.878H18.0829ZM23.4613 10.5C21.5795 10.5 20.1992 10.9751 19.3006 11.9537C18.41 12.9238 18.0829 14.2925 18.0829 15.878H19.0829C19.0829 14.4044 19.3908 13.3341 20.0373 12.63C20.6759 11.9344 21.7348 11.5 23.4613 11.5V10.5ZM26.4654 10.5H23.4613V11.5H26.4654V10.5ZM26.9654 14.7501V11H25.9654V14.7501H26.9654ZM24.5876 15.2501H26.4654V14.2501H24.5876V15.2501ZM23.5901 16.2521C23.5901 16.0087 23.5965 15.8286 23.6199 15.6859C23.6427 15.5471 23.6763 15.4802 23.7054 15.4431C23.7516 15.3842 23.911 15.2501 24.5876 15.2501V14.2501C23.8596 14.2501 23.2702 14.378 22.9188 14.8256C22.7491 15.0418 22.6717 15.2892 22.6331 15.5238C22.5953 15.7544 22.5901 16.0065 22.5901 16.2521H23.5901ZM23.585 18.1302L23.5901 16.2534L22.5901 16.2507L22.585 18.1275L23.585 18.1302ZM26.4867 17.6288H23.085V18.6288H26.4867V17.6288ZM26.5858 21.9313L26.9839 18.1816L25.9894 18.0761L25.5914 21.8257L26.5858 21.9313ZM23.085 22.3785H26.0886V21.3785H23.085V22.3785Z" fill="#82B5D1"/>
</svg>
