<svg width="166" height="166" viewBox="0 0 166 166" fill="none" xmlns="http://www.w3.org/2000/svg">
<g clip-path="url(#clip0_57_13)" filter="url(#filter0_b_57_13)">
<path d="M70.2668 95.1845L78.0385 90.6938L67.96 82.2158L70.2668 95.1845Z" fill="#FD912E" fill-opacity="0.7"/>
<path d="M166.285 82.9135C166.285 81.0019 165.346 79.3214 163.916 78.2673L163.946 78.2155L143.806 66.5882L155.399 46.5088L155.36 46.4851C155.726 45.6575 155.892 44.7553 155.845 43.8517C155.797 42.948 155.537 42.0682 155.086 41.2838C154.631 40.5001 153.998 39.8346 153.238 39.3415C152.478 38.8483 151.613 38.5414 150.712 38.4456V38.3894H127.453V15.1975H127.405C127.309 14.2977 127.001 13.4334 126.508 12.6746C126.015 11.9158 125.35 11.2839 124.567 10.83C123.781 10.3774 122.9 10.117 121.994 10.0701C121.089 10.0232 120.185 10.191 119.357 10.56L119.329 10.5103L98.8501 22.3341L87.5101 2.69108L87.4691 2.71485C86.9352 1.98418 86.2368 1.38951 85.4304 0.978973C84.6239 0.568438 83.7321 0.353585 82.8272 0.351807C80.9156 0.351807 79.233 1.2914 78.1811 2.72132L78.1292 2.69108L66.6013 22.6581L46.7509 11.1972L46.7272 11.2382C45.8996 10.872 44.9974 10.706 44.0937 10.7537C43.19 10.8014 42.3103 11.0613 41.5259 11.5125C40.7416 11.9667 40.0757 12.5995 39.5821 13.3595C39.0886 14.1196 38.7814 14.9854 38.6855 15.8865H38.6272V38.9424H15.7052V38.9877C14.8055 39.0845 13.9412 39.3919 13.1824 39.885C12.4236 40.3781 11.7916 41.0431 11.3377 41.826C10.8863 42.6112 10.6265 43.4918 10.5792 44.3962C10.5319 45.3007 10.6985 46.2036 11.0656 47.0316L11.0159 47.0618L22.3472 66.6897L2.0562 78.4056L2.07996 78.4466C1.3493 78.9805 0.754622 79.6789 0.344087 80.4853C-0.0664472 81.2917 -0.281303 82.1835 -0.283081 83.0884C-0.283081 85 0.656519 86.6827 2.08644 87.7346L2.0562 87.7864L22.196 99.4137L10.6033 119.493L10.6422 119.515C10.276 120.342 10.11 121.244 10.1577 122.148C10.2054 123.052 10.4653 123.932 10.9165 124.716C11.3711 125.5 12.004 126.165 12.764 126.658C13.524 127.151 14.3896 127.458 15.2905 127.554V127.613H38.5472V150.802H38.5948C38.7935 152.565 39.7806 154.215 41.433 155.17C42.2188 155.622 43.1003 155.882 44.0056 155.929C44.911 155.976 45.8146 155.808 46.6429 155.44L46.671 155.489L67.1499 143.666L78.49 163.309L78.531 163.285C79.0648 164.016 79.7633 164.61 80.5697 165.021C81.3761 165.431 82.2679 165.646 83.1728 165.648C85.0844 165.648 86.7671 164.708 87.819 163.281L87.8687 163.309L99.3966 143.342L119.249 154.803L119.273 154.762C120.1 155.128 121.003 155.294 121.906 155.246C122.81 155.198 123.69 154.938 124.474 154.487C125.259 154.033 125.925 153.401 126.418 152.641C126.912 151.88 127.219 151.014 127.315 150.113H127.373V127.06H150.297V127.014C151.197 126.917 152.061 126.61 152.82 126.117C153.579 125.624 154.211 124.959 154.665 124.176C155.116 123.391 155.376 122.51 155.423 121.606C155.47 120.701 155.304 119.798 154.937 118.97L154.986 118.942L143.655 99.3144L163.946 87.5985L163.922 87.5575C164.653 87.0232 165.248 86.3243 165.658 85.5176C166.069 84.7108 166.284 83.8187 166.285 82.9135ZM56.08 115.825C51.2631 118.607 46.8956 118.988 43.1826 117.99L43.7032 112.164C46.5155 112.979 50.1508 112.974 53.5852 110.989C56.5379 109.285 57.1664 107.177 56.3262 105.723C53.8228 101.39 41.2235 112.7 35.8084 103.323C33.4151 99.1761 35.0156 93.666 40.8844 90.2791C44.8436 87.9916 48.8224 87.2918 52.6045 88.145L51.9371 93.8107C48.8418 93.1108 45.6558 93.802 43.1156 95.2665C40.8736 96.5625 40.1629 98.2668 41.0269 99.7636C43.2928 103.686 56.0713 92.7739 61.4411 102.073C64.0741 106.628 62.7716 111.965 56.08 115.825ZM86.1968 97.8412L82.1922 94.5256L71.5067 100.695L72.3728 105.822L66.3572 109.294L61.5728 78.8311L68.2235 74.9928L92.2124 94.3701L86.1968 97.8412ZM94.3033 93.1627L79.9156 68.2406L85.2594 65.154L96.9515 85.404L107.488 79.3214L110.186 83.9935L94.3033 93.1627ZM113.769 81.9242L99.3815 57.0043L117.016 46.8199L119.711 51.4898L107.384 58.6092L110.404 63.8407L122.47 56.8725L125.165 61.5424L113.1 68.5084L116.379 74.1892L128.708 67.0699L131.406 71.7398L113.769 81.9242Z" fill="#FD912E" fill-opacity="0.7"/>
</g>
<defs>
<filter id="filter0_b_57_13" x="-20" y="-20" width="206" height="206" filterUnits="userSpaceOnUse" color-interpolation-filters="sRGB">
<feFlood flood-opacity="0" result="BackgroundImageFix"/>
<feGaussianBlur in="BackgroundImageFix" stdDeviation="10"/>
<feComposite in2="SourceAlpha" operator="in" result="effect1_backgroundBlur_57_13"/>
<feBlend mode="normal" in="SourceGraphic" in2="effect1_backgroundBlur_57_13" result="shape"/>
</filter>
<clipPath id="clip0_57_13">
<rect width="166" height="166" fill="white"/>
</clipPath>
</defs>
</svg>
