<svg width="42" height="20" viewBox="0 0 42 20" fill="none" xmlns="http://www.w3.org/2000/svg">
<path d="M7.8 19C7.592 19 7.416 18.936 7.272 18.808C7.144 18.664 7.08 18.488 7.08 18.28V0.256001H8.52V18.28C8.52 18.488 8.448 18.664 8.304 18.808C8.176 18.936 8.008 19 7.8 19ZM1.008 1.552C0.816001 1.552 0.656001 1.496 0.528001 1.384C0.416001 1.256 0.360001 1.096 0.360001 0.904001C0.360001 0.712 0.416001 0.56 0.528001 0.447999C0.656001 0.32 0.816001 0.256001 1.008 0.256001H14.592C14.784 0.256001 14.936 0.32 15.048 0.447999C15.176 0.56 15.24 0.712 15.24 0.904001C15.24 1.096 15.176 1.256 15.048 1.384C14.936 1.496 14.784 1.552 14.592 1.552H1.008Z" fill="#82B5D1"/>
<path d="M20.16 19.144C18.88 19.144 17.728 18.856 16.704 18.28C15.696 17.688 14.896 16.888 14.304 15.88C13.728 14.856 13.44 13.712 13.44 12.448C13.44 11.168 13.728 10.024 14.304 9.016C14.896 7.992 15.696 7.192 16.704 6.616C17.728 6.024 18.88 5.728 20.16 5.728C21.44 5.728 22.584 6.024 23.592 6.616C24.6 7.192 25.392 7.992 25.968 9.016C26.56 10.024 26.856 11.168 26.856 12.448L26.256 13.408C26.256 14.496 25.984 15.472 25.44 16.336C24.912 17.2 24.192 17.888 23.28 18.4C22.368 18.896 21.328 19.144 20.16 19.144ZM20.16 17.8C21.168 17.8 22.064 17.568 22.848 17.104C23.648 16.624 24.272 15.984 24.72 15.184C25.184 14.368 25.416 13.456 25.416 12.448C25.416 11.424 25.184 10.512 24.72 9.712C24.272 8.896 23.648 8.256 22.848 7.792C22.064 7.312 21.168 7.072 20.16 7.072C19.168 7.072 18.272 7.312 17.472 7.792C16.672 8.256 16.04 8.896 15.576 9.712C15.112 10.512 14.88 11.424 14.88 12.448C14.88 13.456 15.112 14.368 15.576 15.184C16.04 15.984 16.672 16.624 17.472 17.104C18.272 17.568 19.168 17.8 20.16 17.8ZM26.136 19C25.928 19 25.752 18.936 25.608 18.808C25.48 18.664 25.416 18.488 25.416 18.28V13.888L25.872 12.448H26.856V18.28C26.856 18.488 26.792 18.664 26.664 18.808C26.536 18.936 26.36 19 26.136 19Z" fill="#82B5D1"/>
<path d="M31.6491 19C31.4411 19 31.2651 18.936 31.1211 18.808C30.9931 18.664 30.9291 18.488 30.9291 18.28V6.592C30.9291 6.368 30.9931 6.192 31.1211 6.064C31.2651 5.936 31.4411 5.872 31.6491 5.872C31.8731 5.872 32.0491 5.936 32.1771 6.064C32.3051 6.192 32.3691 6.368 32.3691 6.592V18.28C32.3691 18.488 32.3051 18.664 32.1771 18.808C32.0491 18.936 31.8731 19 31.6491 19ZM31.6251 3.112C31.3211 3.112 31.0571 3.008 30.8331 2.8C30.6251 2.576 30.5211 2.304 30.5211 1.984C30.5211 1.616 30.6331 1.344 30.8571 1.168C31.0971 0.976 31.3611 0.88 31.6491 0.88C31.9211 0.88 32.1691 0.976 32.3931 1.168C32.6331 1.344 32.7531 1.616 32.7531 1.984C32.7531 2.304 32.6411 2.576 32.4171 2.8C32.2091 3.008 31.9451 3.112 31.6251 3.112Z" fill="#82B5D1"/>
<path d="M39.8156 19C39.2076 19 38.6636 18.832 38.1836 18.496C37.7196 18.16 37.3516 17.696 37.0796 17.104C36.8236 16.512 36.6956 15.824 36.6956 15.04V0.976C36.6956 0.752 36.7596 0.576 36.8876 0.447999C37.0316 0.32 37.2076 0.256001 37.4156 0.256001C37.6396 0.256001 37.8156 0.32 37.9436 0.447999C38.0716 0.576 38.1356 0.752 38.1356 0.976V15.04C38.1356 15.776 38.2876 16.384 38.5916 16.864C38.9116 17.328 39.3196 17.56 39.8156 17.56H40.4156C40.5916 17.56 40.7356 17.624 40.8476 17.752C40.9596 17.88 41.0156 18.056 41.0156 18.28C41.0156 18.488 40.9516 18.664 40.8236 18.808C40.6956 18.936 40.5196 19 40.2956 19H39.8156Z" fill="#82B5D1"/>
<path d="M7.8 19C7.592 19 7.416 18.936 7.272 18.808C7.144 18.664 7.08 18.488 7.08 18.28V0.256001H8.52V18.28C8.52 18.488 8.448 18.664 8.304 18.808C8.176 18.936 8.008 19 7.8 19ZM1.008 1.552C0.816001 1.552 0.656001 1.496 0.528001 1.384C0.416001 1.256 0.360001 1.096 0.360001 0.904001C0.360001 0.712 0.416001 0.56 0.528001 0.447999C0.656001 0.32 0.816001 0.256001 1.008 0.256001H14.592C14.784 0.256001 14.936 0.32 15.048 0.447999C15.176 0.56 15.24 0.712 15.24 0.904001C15.24 1.096 15.176 1.256 15.048 1.384C14.936 1.496 14.784 1.552 14.592 1.552H1.008Z" fill="#FD912E"/>
</svg>
